HIERARCHY
ROOT mixamorig:Hips
{
	OFFSET -0.000008 104.274872 1.554316
	CHANNELS 6 Xposition Yposition Zposition Xrotation Yrotation Zrotation
	JOINT mixamorig:Spine
	{
		OFFSET -0.000005 10.181595 0.131519
		CHANNELS 6 Xposition Yposition Zposition Xrotation Yrotation Zrotation
		JOINT mixamorig:Spine1
		{
			OFFSET -0.000000 9.893959 -1.470707
			CHANNELS 6 Xposition Yposition Zposition Xrotation Yrotation Zrotation
			JOINT mixamorig:Spine2
			{
				OFFSET -0.000000 9.220757 -1.370641
				CHANNELS 6 Xposition Yposition Zposition Xrotation Yrotation Zrotation
				JOINT mixamorig:Neck
				{
					OFFSET 0.000001 16.740417 -2.049036
					CHANNELS 6 Xposition Yposition Zposition Xrotation Yrotation Zrotation
					JOINT mixamorig:Head
					{
						OFFSET 0.000000 9.617874 1.685006
						CHANNELS 6 Xposition Yposition Zposition Xrotation Yrotation Zrotation
						JOINT mixamorig:HeadTop_End
						{
							OFFSET 0.000002 22.037354 7.501101
							CHANNELS 6 Xposition Yposition Zposition Xrotation Yrotation Zrotation
							End Site
							{
								OFFSET 0.000168 2310.654297 -282.823242
							}
						}
					}
				}
				JOINT mixamorig:RightShoulder
				{
					OFFSET -4.569970 11.014908 -2.160885
					CHANNELS 6 Xposition Yposition Zposition Xrotation Yrotation Zrotation
					JOINT mixamorig:RightArm
					{
						OFFSET -10.592851 -0.524811 -2.232101
						CHANNELS 6 Xposition Yposition Zposition Xrotation Yrotation Zrotation
						JOINT mixamorig:RightForeArm
						{
							OFFSET -27.841511 0.000031 -0.000004
							CHANNELS 6 Xposition Yposition Zposition Xrotation Yrotation Zrotation
							JOINT mixamorig:RightHand
							{
								OFFSET -28.328831 -0.000015 0.000015
								CHANNELS 6 Xposition Yposition Zposition Xrotation Yrotation Zrotation
								JOINT mixamorig:RightHandThumb1
								{
									OFFSET -2.464806 -1.573990 2.681852
									CHANNELS 6 Xposition Yposition Zposition Xrotation Yrotation Zrotation
									JOINT mixamorig:RightHandThumb2
									{
										OFFSET -3.215179 -1.872803 1.924282
										CHANNELS 6 Xposition Yposition Zposition Xrotation Yrotation Zrotation
										JOINT mixamorig:RightHandThumb3
										{
											OFFSET -2.654831 -1.527969 1.512609
											CHANNELS 6 Xposition Yposition Zposition Xrotation Yrotation Zrotation
											JOINT mixamorig:RightHandThumb4
											{
												OFFSET -2.018814 -1.152008 1.108052
												CHANNELS 6 Xposition Yposition Zposition Xrotation Yrotation Zrotation
												End Site
												{
													OFFSET -188.809540 -114.533607 132.431396
												}
											}
										}
									}
								}
								JOINT mixamorig:RightHandIndex1
								{
									OFFSET -9.108284 -0.517868 2.259835
									CHANNELS 6 Xposition Yposition Zposition Xrotation Yrotation Zrotation
									JOINT mixamorig:RightHandIndex2
									{
										OFFSET -3.699989 0.000000 0.001215
										CHANNELS 6 Xposition Yposition Zposition Xrotation Yrotation Zrotation
										JOINT mixamorig:RightHandIndex3
										{
											OFFSET -2.850006 0.000031 -0.000522
											CHANNELS 6 Xposition Yposition Zposition Xrotation Yrotation Zrotation
											JOINT mixamorig:RightHandIndex4
											{
												OFFSET -2.772186 -0.000015 -0.000020
												CHANNELS 6 Xposition Yposition Zposition Xrotation Yrotation Zrotation
												End Site
												{
													OFFSET -277.218445 0.000000 -0.050231
												}
											}
										}
									}
								}
								JOINT mixamorig:RightHandMiddle1
								{
									OFFSET -9.532516 -0.000031 -0.000023
									CHANNELS 6 Xposition Yposition Zposition Xrotation Yrotation Zrotation
									JOINT mixamorig:RightHandMiddle2
									{
										OFFSET -3.700005 -0.000015 0.003713
										CHANNELS 6 Xposition Yposition Zposition Xrotation Yrotation Zrotation
										JOINT mixamorig:RightHandMiddle3
										{
											OFFSET -2.949974 0.000015 -0.002054
											CHANNELS 6 Xposition Yposition Zposition Xrotation Yrotation Zrotation
											JOINT mixamorig:RightHandMiddle4
											{
												OFFSET -2.946640 0.000000 -0.000156
												CHANNELS 6 Xposition Yposition Zposition Xrotation Yrotation Zrotation
												End Site
												{
													OFFSET -294.664337 0.000000 -0.113670
												}
											}
										}
									}
								}
								JOINT mixamorig:RightHandRing1
								{
									OFFSET -9.103600 -0.043076 -1.865134
									CHANNELS 6 Xposition Yposition Zposition Xrotation Yrotation Zrotation
									JOINT mixamorig:RightHandRing2
									{
										OFFSET -3.379288 0.000000 -0.001055
										CHANNELS 6 Xposition Yposition Zposition Xrotation Yrotation Zrotation
										JOINT mixamorig:RightHandRing3
										{
											OFFSET -2.889687 -0.000015 0.000379
											CHANNELS 6 Xposition Yposition Zposition Xrotation Yrotation Zrotation
											JOINT mixamorig:RightHandRing4
											{
												OFFSET -2.638809 -0.000015 0.000941
												CHANNELS 6 Xposition Yposition Zposition Xrotation Yrotation Zrotation
												End Site
												{
													OFFSET -263.880371 0.000000 0.516020
												}
											}
										}
									}
								}
								JOINT mixamorig:RightHandPinky1
								{
									OFFSET -8.076683 -0.486710 -3.806280
									CHANNELS 6 Xposition Yposition Zposition Xrotation Yrotation Zrotation
									JOINT mixamorig:RightHandPinky2
									{
										OFFSET -3.600014 -0.000015 -0.003747
										CHANNELS 6 Xposition Yposition Zposition Xrotation Yrotation Zrotation
										JOINT mixamorig:RightHandPinky3
										{
											OFFSET -2.099983 0.000000 -0.005739
											CHANNELS 6 Xposition Yposition Zposition Xrotation Yrotation Zrotation
											JOINT mixamorig:RightHandPinky4
											{
												OFFSET -2.115768 -0.000031 -0.003680
												CHANNELS 6 Xposition Yposition Zposition Xrotation Yrotation Zrotation
												End Site
												{
													OFFSET -211.577087 0.000000 -0.350686
												}
											}
										}
									}
								}
							}
						}
					}
				}
				JOINT mixamorig:LeftShoulder
				{
					OFFSET 4.570447 11.014725 -2.160855
					CHANNELS 6 Xposition Yposition Zposition Xrotation Yrotation Zrotation
					JOINT mixamorig:LeftArm
					{
						OFFSET 10.592371 -0.524597 -2.232119
						CHANNELS 6 Xposition Yposition Zposition Xrotation Yrotation Zrotation
						JOINT mixamorig:LeftForeArm
						{
							OFFSET 27.841532 -0.000031 0.000026
							CHANNELS 6 Xposition Yposition Zposition Xrotation Yrotation Zrotation
							JOINT mixamorig:LeftHand
							{
								OFFSET 28.328846 -0.000061 0.000022
								CHANNELS 6 Xposition Yposition Zposition Xrotation Yrotation Zrotation
								JOINT mixamorig:LeftHandThumb1
								{
									OFFSET 2.466141 -1.576172 2.681732
									CHANNELS 6 Xposition Yposition Zposition Xrotation Yrotation Zrotation
									JOINT mixamorig:LeftHandThumb2
									{
										OFFSET 3.217812 -1.872070 1.916482
										CHANNELS 6 Xposition Yposition Zposition Xrotation Yrotation Zrotation
										JOINT mixamorig:LeftHandThumb3
										{
											OFFSET 2.656029 -1.528778 1.514513
											CHANNELS 6 Xposition Yposition Zposition Xrotation Yrotation Zrotation
											JOINT mixamorig:LeftHandThumb4
											{
												OFFSET 2.020889 -1.154053 1.115139
												CHANNELS 6 Xposition Yposition Zposition Xrotation Yrotation Zrotation
												End Site
												{
													OFFSET 190.885437 -115.081749 130.048782
												}
											}
										}
									}
								}
								JOINT mixamorig:LeftHandIndex1
								{
									OFFSET 9.109314 -0.518021 2.259871
									CHANNELS 6 Xposition Yposition Zposition Xrotation Yrotation Zrotation
									JOINT mixamorig:LeftHandIndex2
									{
										OFFSET 3.699989 0.000000 -0.000322
										CHANNELS 6 Xposition Yposition Zposition Xrotation Yrotation Zrotation
										JOINT mixamorig:LeftHandIndex3
										{
											OFFSET 2.850006 0.000000 0.000352
											CHANNELS 6 Xposition Yposition Zposition Xrotation Yrotation Zrotation
											JOINT mixamorig:LeftHandIndex4
											{
												OFFSET 2.774864 -0.000031 -0.000027
												CHANNELS 6 Xposition Yposition Zposition Xrotation Yrotation Zrotation
												End Site
												{
													OFFSET 277.486267 0.000000 -0.009857
												}
											}
										}
									}
								}
								JOINT mixamorig:LeftHandMiddle1
								{
									OFFSET 9.533394 0.000061 0.000044
									CHANNELS 6 Xposition Yposition Zposition Xrotation Yrotation Zrotation
									JOINT mixamorig:LeftHandMiddle2
									{
										OFFSET 3.699989 -0.000015 -0.000231
										CHANNELS 6 Xposition Yposition Zposition Xrotation Yrotation Zrotation
										JOINT mixamorig:LeftHandMiddle3
										{
											OFFSET 2.949997 -0.000015 -0.000059
											CHANNELS 6 Xposition Yposition Zposition Xrotation Yrotation Zrotation
											JOINT mixamorig:LeftHandMiddle4
											{
												OFFSET 2.952896 0.000031 0.000063
												CHANNELS 6 Xposition Yposition Zposition Xrotation Yrotation Zrotation
												End Site
												{
													OFFSET 295.289337 0.000000 0.022810
												}
											}
										}
									}
								}
								JOINT mixamorig:LeftHandRing1
								{
									OFFSET 9.104523 -0.042999 -1.865074
									CHANNELS 6 Xposition Yposition Zposition Xrotation Yrotation Zrotation
									JOINT mixamorig:LeftHandRing2
									{
										OFFSET 3.150009 -0.000031 0.000043
										CHANNELS 6 Xposition Yposition Zposition Xrotation Yrotation Zrotation
										JOINT mixamorig:LeftHandRing3
										{
											OFFSET 2.949982 -0.000015 0.000040
											CHANNELS 6 Xposition Yposition Zposition Xrotation Yrotation Zrotation
											JOINT mixamorig:LeftHandRing4
											{
												OFFSET 2.644348 0.000000 0.000057
												CHANNELS 6 Xposition Yposition Zposition Xrotation Yrotation Zrotation
												End Site
												{
													OFFSET 264.434631 0.000000 0.012105
												}
											}
										}
									}
								}
								JOINT mixamorig:LeftHandPinky1
								{
									OFFSET 8.077789 -0.486847 -3.806259
									CHANNELS 6 Xposition Yposition Zposition Xrotation Yrotation Zrotation
									JOINT mixamorig:LeftHandPinky2
									{
										OFFSET 3.599953 0.000031 0.014727
										CHANNELS 6 Xposition Yposition Zposition Xrotation Yrotation Zrotation
										JOINT mixamorig:LeftHandPinky3
										{
											OFFSET 2.100021 0.000015 0.007705
											CHANNELS 6 Xposition Yposition Zposition Xrotation Yrotation Zrotation
											JOINT mixamorig:LeftHandPinky4
											{
												OFFSET 2.125504 0.000031 0.007517
												CHANNELS 6 Xposition Yposition Zposition Xrotation Yrotation Zrotation
												End Site
												{
													OFFSET 212.550781 0.000000 0.625752
												}
											}
										}
									}
								}
							}
						}
					}
				}
			}
		}
	}
	JOINT mixamorig:RightUpLeg
	{
		OFFSET -8.207787 -6.751648 -1.599560
		CHANNELS 6 Xposition Yposition Zposition Xrotation Yrotation Zrotation
		JOINT mixamorig:RightLeg
		{
			OFFSET -0.000002 -44.370117 0.345942
			CHANNELS 6 Xposition Yposition Zposition Xrotation Yrotation Zrotation
			JOINT mixamorig:RightFoot
			{
				OFFSET 0.000003 -44.423679 -3.043532
				CHANNELS 6 Xposition Yposition Zposition Xrotation Yrotation Zrotation
				JOINT mixamorig:RightToeBase
				{
					OFFSET -0.000002 -8.728671 10.710558
					CHANNELS 6 Xposition Yposition Zposition Xrotation Yrotation Zrotation
					JOINT mixamorig:RightToe_End
					{
						OFFSET -0.000001 -0.000679 9.278119
						CHANNELS 6 Xposition Yposition Zposition Xrotation Yrotation Zrotation
						End Site
						{
							OFFSET 0.000000 -0.067690 927.812134
						}
					}
				}
			}
		}
	}
	JOINT mixamorig:LeftUpLeg
	{
		OFFSET 8.207793 -6.751686 -1.599556
		CHANNELS 6 Xposition Yposition Zposition Xrotation Yrotation Zrotation
		JOINT mixamorig:LeftLeg
		{
			OFFSET -0.000004 -44.370014 0.346954
			CHANNELS 6 Xposition Yposition Zposition Xrotation Yrotation Zrotation
			JOINT mixamorig:LeftFoot
			{
				OFFSET -0.000001 -44.423672 -3.044401
				CHANNELS 6 Xposition Yposition Zposition Xrotation Yrotation Zrotation
				JOINT mixamorig:LeftToeBase
				{
					OFFSET -0.000002 -8.728669 10.710558
					CHANNELS 6 Xposition Yposition Zposition Xrotation Yrotation Zrotation
					JOINT mixamorig:LeftToe_End
					{
						OFFSET -0.000003 -0.000679 9.278133
						CHANNELS 6 Xposition Yposition Zposition Xrotation Yrotation Zrotation
						End Site
						{
							OFFSET 0.000000 -0.068021 927.813477
						}
					}
				}
			}
		}
	}
}
MOTION
Frames: 3
Frame Time: 0.033333
0.000006 104.270477 1.554256 0.000010 0.000003 -0.000113 -0.000005 10.181587 0.131522 0.000001 -0.000003 0.000084 -0.000000 9.893967 -1.470711 0.000001 0.000000 -0.000000 -0.000000 9.220802 -1.370642 0.000000 -0.000000 -0.000000 0.000001 16.740433 -2.049030 0.000000 -0.000000 -0.000000 0.000000 9.617859 1.685014 0.000000 0.000000 0.000000 0.000002 22.037384 7.501101 0.000000 -0.000000 0.000000 -4.569968 11.014880 -2.160881 0.000008 0.000001 -0.000038 -10.592872 -0.524763 -2.231904 75.364075 29.319994 -22.846303 -27.841515 0.000013 0.000554 -47.745823 104.777069 59.750823 -28.328827 0.000021 0.000031 -0.000324 -0.000042 0.000003 -2.464429 -1.573767 2.682320 -49.704939 -165.837020 -14.728497 -3.215249 -1.872543 1.924630 148.761739 32.233169 15.280730 -2.654953 -1.527859 1.513053 144.727201 28.002293 -28.781922 -2.018842 -1.151997 1.108066 -0.000005 -0.000004 0.000005 -9.108381 -0.517559 2.260133 100.804324 15.199929 -18.381262 -3.700063 0.000306 0.001517 99.115942 13.415107 -15.684809 -2.850094 0.000349 -0.000241 98.648771 11.719127 -13.618634 -2.772163 0.000001 -0.000021 0.000001 0.000001 -0.000000 -9.532598 0.000262 0.000252 93.629907 16.637007 -17.861344 -3.700085 0.000324 0.003988 95.235814 13.366293 -14.528880 -2.950068 0.000327 -0.001767 96.438207 12.674385 -14.162462 -2.946638 0.000014 -0.000158 0.000003 -0.000000 -0.000001 -9.103724 -0.042780 -1.864879 90.178332 21.799001 -21.818778 -3.379348 0.000296 -0.000801 93.932750 13.105403 -14.047626 -2.889773 0.000330 0.000663 99.290986 9.451676 -11.169212 -2.638803 0.000001 0.000942 -0.000001 -0.000001 0.000001 -8.076784 -0.486426 -3.806067 74.466499 25.003429 -19.003736 -3.600058 0.000232 -0.003541 78.545775 13.752520 -10.951479 -2.100039 0.000303 -0.005523 82.341585 7.735676 -6.569658 -2.115756 -0.000041 -0.003677 0.000000 -0.000000 -0.000005 4.570446 11.014691 -2.160851 -0.000018 0.000010 -0.000021 10.592522 -0.524513 -2.232398 70.957428 -57.085649 42.379988 27.841799 -0.000042 -0.000145 191.297261 -83.931769 192.552376 28.328821 -0.000015 0.000021 0.000021 -0.000089 0.000001 2.466161 -1.576107 2.681907 133.850753 200.213786 -166.985954 3.217862 -1.871939 1.916549 282.797152 14.180263 24.235926 2.656039 -1.528770 1.514628 246.439892 39.160951 54.331897 2.020888 -1.154085 1.115149 0.000001 0.000002 0.000001 9.109251 -0.517783 2.260112 66.861261 -166.285532 159.362356 3.699989 0.000204 -0.000097 71.744102 -177.870625 177.036960 2.850032 0.000213 0.000573 73.529705 -183.868624 185.177917 2.774879 -0.000046 -0.000028 -0.000000 -0.000002 0.000000 9.533348 0.000269 0.000285 72.077777 -166.917543 162.095170 3.700006 0.000180 0.000013 78.865988 -180.266724 180.327062 2.950026 0.000151 0.000182 -96.075538 2.773178 3.081002 2.952873 -0.000015 0.000064 -0.000002 0.000000 -0.000000 9.104494 -0.042805 -1.864822 256.458632 -9.438600 -11.966853 3.150002 0.000195 0.000288 266.543898 -2.019042 -2.146199 2.949982 0.000156 0.000289 270.088137 -0.254241 -0.255318 2.644327 0.000015 0.000047 0.000000 -0.000002 -0.000000 8.077754 -0.486678 -3.806024 261.355440 -6.613605 -8.169206 3.599957 0.000160 0.014986 277.266776 -2.301654 -2.382165 2.099988 0.000170 0.007939 279.979180 -1.875032 -1.901566 2.125504 -0.000030 0.007515 -0.000000 0.000002 0.000003 -8.207786 -6.751667 -1.599560 -0.077001 -0.000003 0.000080 -0.000002 -44.370110 0.345938 0.153719 -0.000000 -0.000000 0.000000 -44.423679 -3.043532 -0.076700 0.000000 -0.000002 -0.000006 -8.728667 10.710559 -0.000009 -0.000000 -0.000000 -0.000001 -0.000679 9.278123 0.000000 -0.000000 -0.000000 8.207792 -6.751710 -1.599556 -0.074518 -0.000003 0.000081 -0.000002 -44.370014 0.346960 0.148822 0.000002 0.000000 -0.000001 -44.423664 -3.044403 -0.074314 0.000000 -0.000002 -0.000004 -8.728671 10.710558 0.000007 -0.000000 -0.000000 0.000000 -0.000680 9.278137 -0.000000 0.000000 -0.000001 
0.000006 104.270477 1.554256 0.000010 0.000003 -0.000113 -0.000005 10.181587 0.131522 0.000001 -0.000003 0.000084 -0.000000 9.893967 -1.470711 0.000001 0.000000 -0.000000 -0.000000 9.220802 -1.370642 0.000000 -0.000000 -0.000000 0.000001 16.740433 -2.049030 0.000000 -0.000000 -0.000000 0.000000 9.617859 1.685014 0.000000 0.000000 0.000000 0.000002 22.037384 7.501101 0.000000 -0.000000 0.000000 -4.569968 11.014880 -2.160881 0.000008 0.000001 -0.000038 -10.592872 -0.524786 -2.231879 75.568509 33.312182 -26.116108 -27.841526 0.000021 0.000550 -47.902446 104.351432 59.553710 -28.328827 0.000009 0.000028 -0.000321 -0.000044 0.000006 -2.464432 -1.573740 2.682313 -51.434647 -168.082117 -19.738343 -3.215254 -1.872555 1.924637 149.665086 32.000495 11.938355 -2.654959 -1.527862 1.513047 144.736899 27.891752 -30.252329 -2.018829 -1.152014 1.108065 -0.000003 0.000003 -0.000000 -9.108374 -0.517554 2.260131 101.140314 15.472074 -18.817808 -3.700075 0.000313 0.001527 98.141506 13.596246 -15.628458 -2.850089 0.000357 -0.000254 97.780790 11.837937 -13.549361 -2.772170 -0.000015 -0.000013 -0.000001 -0.000001 -0.000001 -9.532590 0.000261 0.000256 94.065755 17.237043 -18.638739 -3.700063 0.000329 0.003980 95.068624 13.170895 -14.274093 -2.950067 0.000324 -0.001790 96.753359 12.418362 -13.953100 -2.946641 0.000002 -0.000155 0.000002 -0.000000 0.000001 -9.103709 -0.042788 -1.864856 89.676914 21.870310 -21.704074 -3.379353 0.000294 -0.000792 93.847284 12.630395 -13.519647 -2.889776 0.000329 0.000668 99.664932 9.274474 -11.033423 -2.638828 -0.000015 0.000943 -0.000001 0.000004 -0.000002 -8.076776 -0.486441 -3.806053 74.245256 23.995276 -18.152022 -3.600078 0.000247 -0.003554 78.803915 13.702846 -10.960851 -2.100049 0.000304 -0.005531 83.022008 7.933794 -6.823639 -2.115768 -0.000042 -0.003687 -0.000001 0.000001 -0.000006 4.570446 11.014691 -2.160851 -0.000018 0.000010 -0.000021 10.592516 -0.524521 -2.232397 70.960324 -58.837626 43.793879 27.841789 -0.000006 -0.000144 197.979522 -84.368122 199.804630 28.328825 -0.000017 0.000017 0.000018 -0.000090 -0.000000 2.466184 -1.576080 2.681911 126.052698 201.182512 -166.403243 3.217868 -1.871915 1.916588 281.603754 9.054744 23.414114 2.656068 -1.528740 1.514595 248.070941 33.527527 50.268731 2.020899 -1.154067 1.115163 0.000003 0.000002 0.000002 9.109245 -0.517804 2.260104 71.648637 -162.789609 156.329274 3.699960 0.000205 -0.000087 74.165766 -171.445603 168.682259 2.849999 0.000252 0.000579 72.006873 -178.274003 177.626282 2.774887 -0.000047 -0.000026 0.000000 0.000000 0.000000 9.533353 0.000264 0.000268 73.729488 -165.737505 161.062158 3.700005 0.000207 0.000004 79.251716 -178.964985 178.752703 2.950012 0.000168 0.000187 -97.278669 1.314246 1.489907 2.952873 -0.000031 0.000068 -0.000000 -0.000001 -0.000000 9.104488 -0.042814 -1.864838 257.855706 -10.732821 -13.269067 3.150003 0.000190 0.000260 267.515123 -0.113488 -0.120116 2.949992 0.000156 0.000254 270.447405 1.372716 1.360534 2.644324 0.000014 0.000049 -0.000001 0.000000 0.000001 8.077755 -0.486684 -3.806030 264.831132 -9.264276 -10.558367 3.599955 0.000145 0.014975 280.435191 -1.485082 -1.577699 2.100009 0.000115 0.007928 284.363342 1.314915 0.699674 2.125511 0.000000 0.007527 -0.000002 -0.000000 0.000000 -8.207786 -6.751667 -1.599560 -0.077001 -0.000003 0.000080 -0.000002 -44.370110 0.345938 0.153719 -0.000000 -0.000000 0.000000 -44.423679 -3.043532 -0.076700 0.000000 -0.000002 -0.000006 -8.728667 10.710559 -0.000009 -0.000000 -0.000000 -0.000001 -0.000679 9.278123 0.000000 -0.000000 -0.000000 8.207792 -6.751710 -1.599556 -0.074518 -0.000003 0.000081 -0.000002 -44.370014 0.346960 0.148822 0.000002 0.000000 -0.000001 -44.423664 -3.044403 -0.074314 0.000000 -0.000002 -0.000004 -8.728671 10.710558 0.000007 -0.000000 -0.000000 0.000000 -0.000680 9.278137 -0.000000 0.000000 -0.000001 
0.000006 104.270477 1.554256 0.000010 0.000003 -0.000113 -0.000005 10.181587 0.131522 0.000001 -0.000003 0.000084 -0.000000 9.893967 -1.470711 0.000001 0.000000 -0.000000 -0.000000 9.220802 -1.370642 0.000000 -0.000000 -0.000000 0.000001 16.740433 -2.049030 0.000000 -0.000000 -0.000000 0.000000 9.617859 1.685014 0.000000 0.000000 0.000000 0.000002 22.037384 7.501101 0.000000 -0.000000 0.000000 -4.569968 11.014880 -2.160881 0.000008 0.000001 -0.000038 -10.592873 -0.524791 -2.231885 75.706507 34.533775 -27.161393 -27.841507 0.000008 0.000551 -48.146936 104.350722 59.837020 -28.328819 0.000021 0.000032 -0.000321 -0.000041 0.000003 -2.464408 -1.573760 2.682309 -49.505245 -165.140464 -14.172145 -3.215260 -1.872548 1.924635 149.396782 32.245210 14.294457 -2.654974 -1.527868 1.513060 145.208142 27.935692 -28.837509 -2.018822 -1.151995 1.108065 -0.000003 -0.000003 0.000000 -9.108372 -0.517549 2.260124 100.965011 15.448462 -18.731886 -3.700078 0.000324 0.001518 98.654624 13.194921 -15.304116 -2.850085 0.000369 -0.000252 97.886494 11.330533 -12.993748 -2.772184 0.000000 -0.000019 0.000001 -0.000000 -0.000001 -9.532584 0.000259 0.000267 94.382873 17.311111 -18.820407 -3.700061 0.000329 0.003981 95.703204 13.013607 -14.258967 -2.950058 0.000339 -0.001792 96.827692 12.245114 -13.776555 -2.946622 0.000001 -0.000155 -0.000000 -0.000001 -0.000001 -9.103691 -0.042774 -1.864868 90.059213 22.209590 -22.185380 -3.379356 0.000292 -0.000783 94.829609 13.070693 -14.229950 -2.889783 0.000350 0.000648 100.381767 9.420709 -11.348668 -2.638798 -0.000011 0.000941 -0.000001 0.000003 -0.000002 -8.076767 -0.486423 -3.806064 74.422820 24.843478 -18.865225 -3.600073 0.000250 -0.003555 78.945212 14.475300 -11.624760 -2.100028 0.000302 -0.005521 83.063030 8.192089 -7.056875 -2.115785 -0.000048 -0.003682 0.000002 -0.000001 -0.000005 4.570446 11.014691 -2.160851 -0.000018 0.000010 -0.000021 10.592519 -0.524522 -2.232397 70.466543 -59.363831 43.856276 27.841782 -0.000030 -0.000129 208.972834 -84.413338 211.801366 28.328829 -0.000016 0.000024 0.000021 -0.000087 -0.000002 2.466171 -1.576104 2.681902 127.647356 195.362699 -166.335570 3.217866 -1.871929 1.916561 281.190910 12.903815 24.546303 2.656059 -1.528784 1.514605 251.620071 34.815260 48.555692 2.020886 -1.154081 1.115145 -0.000003 -0.000002 0.000004 9.109260 -0.517793 2.260102 71.426328 -165.226238 159.564762 3.699973 0.000199 -0.000094 73.498778 -174.807326 173.032789 2.850014 0.000234 0.000565 72.642887 -181.866614 182.540426 2.774887 -0.000030 -0.000029 -0.000001 -0.000000 0.000000 9.533360 0.000272 0.000273 74.118037 -167.497275 163.500017 3.700006 0.000198 0.000016 78.989512 -181.040461 181.265161 2.950023 0.000174 0.000167 -97.132557 4.478007 5.069550 2.952874 -0.000046 0.000077 -0.000002 -0.000000 -0.000000 9.104500 -0.042810 -1.864835 258.341114 -8.795570 -10.786674 3.150012 0.000175 0.000268 269.625187 1.946045 1.957226 2.949997 0.000144 0.000262 274.049674 4.089263 3.808723 2.644326 0.000015 0.000058 0.000000 -0.000000 -0.000000 8.077770 -0.486691 -3.806008 266.585862 -7.144354 -8.013257 3.599958 0.000121 0.014951 285.344130 1.120380 0.526886 2.100012 0.000108 0.007916 289.636084 5.154313 3.323492 2.125504 0.000000 0.007512 0.000000 -0.000000 0.000000 -8.207786 -6.751667 -1.599560 -0.077001 -0.000003 0.000080 -0.000002 -44.370110 0.345938 0.153719 -0.000000 -0.000000 0.000000 -44.423679 -3.043532 -0.076700 0.000000 -0.000002 -0.000006 -8.728667 10.710559 -0.000009 -0.000000 -0.000000 -0.000001 -0.000679 9.278123 0.000000 -0.000000 -0.000000 8.207792 -6.751710 -1.599556 -0.074518 -0.000003 0.000081 -0.000002 -44.370014 0.346960 0.148822 0.000002 0.000000 -0.000001 -44.423664 -3.044403 -0.074314 0.000000 -0.000002 -0.000004 -8.728671 10.710558 0.000007 -0.000000 -0.000000 0.000000 -0.000680 9.278137 -0.000000 0.000000 -0.000001 
